HIERARCHY
ROOT Hips
{
	OFFSET 0.000000 0.000000 0.000000
	CHANNELS 6 Xposition Yposition Zposition Xrotation Yrotation Zrotation
	JOINT LeftUpLeg_virtual
	{
		OFFSET 0.000000 0.000000 0.000000
		CHANNELS 3 Xrotation Yrotation Zrotation
		JOINT LeftUpLeg
		{
			OFFSET 13.026900 -6.336304 -1.092800
			CHANNELS 3 Xrotation Yrotation Zrotation
			JOINT LeftLeg
			{
				OFFSET 0.524474 -46.096886 9.782700
				CHANNELS 3 Xrotation Yrotation Zrotation
				JOINT LeftFoot
				{
					OFFSET -0.524474 -53.427422 -12.948200
					CHANNELS 3 Xrotation Yrotation Zrotation
					JOINT LeftToeBase
					{
						OFFSET 0.192200 -14.009700 16.364100
						CHANNELS 3 Xrotation Yrotation Zrotation
						JOINT LeftToe_End
						{
							OFFSET -1.784700 -0.561700 9.474800
							CHANNELS 3 Xrotation Yrotation Zrotation
							End Site
							{
								OFFSET 0 0 0
							}
						}
					}
				}
			}
		}
	}
	JOINT RightUpLeg_virtual
	{
		OFFSET 0.000000 0.000000 0.000000
		CHANNELS 3 Xrotation Yrotation Zrotation
		JOINT RightUpLeg
		{
			OFFSET -12.883000 -6.336304 -1.092800
			CHANNELS 3 Xrotation Yrotation Zrotation
			JOINT RightLeg
			{
				OFFSET -0.524587 -46.096825 9.782800
				CHANNELS 3 Xrotation Yrotation Zrotation
				JOINT RightFoot
				{
					OFFSET 0.524587 -53.427383 -12.948300
					CHANNELS 3 Xrotation Yrotation Zrotation
					JOINT RightToeBase
					{
						OFFSET -0.192200 -14.009700 16.364100
						CHANNELS 3 Xrotation Yrotation Zrotation
						JOINT RightToe_End
						{
							OFFSET 1.784700 -0.561700 9.474800
							CHANNELS 3 Xrotation Yrotation Zrotation
							End Site
							{
								OFFSET 0 0 0
							}
						}
					}
				}
			}
		}
	}
	JOINT Spine_virtual
	{
		OFFSET 0.000000 0.000000 0.000000
		CHANNELS 3 Xrotation Yrotation Zrotation
		JOINT Spine
		{
			OFFSET 0.072000 7.257294 -0.789700
			CHANNELS 3 Xrotation Yrotation Zrotation
			JOINT Spine1
			{
				OFFSET 0.000000 12.508769 -0.658067
				CHANNELS 3 Xrotation Yrotation Zrotation
				JOINT Spine1_split
				{
					OFFSET 0.000000 12.508769 -0.658067
					CHANNELS 3 Xrotation Yrotation Zrotation
					JOINT Spine2
					{
						OFFSET 0.000000 12.508769 -0.658067
						CHANNELS 3 Xrotation Yrotation Zrotation
						JOINT Neck_virtual
						{
							OFFSET 0.000000 0.000000 0.000000
							CHANNELS 3 Xrotation Yrotation Zrotation
							JOINT Neck
							{
								OFFSET 0.000000 14.033295 7.520400
								CHANNELS 3 Xrotation Yrotation Zrotation
								JOINT Head
								{
									OFFSET 0.000000 8.198502 5.703100
									CHANNELS 3 Xrotation Yrotation Zrotation
									JOINT HeadTop_End
									{
										OFFSET 0.000000 17.760803 13.332701
										CHANNELS 3 Xrotation Yrotation Zrotation
										End Site
										{
											OFFSET 0 0 0
										}
									}
								}
							}
						}
						JOINT LeftShoulder_virtual
						{
							OFFSET 0.000000 0.000000 0.000000
							CHANNELS 3 Xrotation Yrotation Zrotation
							JOINT LeftShoulder
							{
								OFFSET 6.292450 5.785301 -0.669000
								CHANNELS 3 Xrotation Yrotation Zrotation
								JOINT LeftShoulder_split
								{
									OFFSET 6.292450 5.785301 -0.669000
									CHANNELS 3 Xrotation Yrotation Zrotation
									JOINT LeftArm
									{
										OFFSET 13.907140 -6.093903 1.965100
										CHANNELS 3 Xrotation Yrotation Zrotation
										JOINT LeftForeArm
										{
											OFFSET 34.140198 0.000000 0.000000
											CHANNELS 3 Xrotation Yrotation Zrotation
											JOINT LeftHand
											{
												OFFSET 40.960209 0.000000 0.000000
												CHANNELS 3 Xrotation Yrotation Zrotation
												End Site
												{
													OFFSET 0 0 0
												}
											}
										}
									}
								}
							}
						}
						JOINT RightShoulder_virtual
						{
							OFFSET 0.000000 0.000000 0.000000
							CHANNELS 3 Xrotation Yrotation Zrotation
							JOINT RightShoulder
							{
								OFFSET -6.292450 5.785301 -0.669000
								CHANNELS 3 Xrotation Yrotation Zrotation
								JOINT RightShoulder_split
								{
									OFFSET -6.292450 5.785301 -0.669000
									CHANNELS 3 Xrotation Yrotation Zrotation
									JOINT RightArm
									{
										OFFSET -13.907140 -6.093903 1.965100
										CHANNELS 3 Xrotation Yrotation Zrotation
										JOINT RightForeArm
										{
											OFFSET -34.140198 0.000000 0.000000
											CHANNELS 3 Xrotation Yrotation Zrotation
											JOINT RightHand
											{
												OFFSET -40.960209 0.000000 0.000000
												CHANNELS 3 Xrotation Yrotation Zrotation
												End Site
												{
													OFFSET 0 0 0
												}
											}
										}
									}
								}
							}
						}
					}
				}
			}
		}
	}
}
MOTION
Frames: 9
Frame Time: 0.03333333
0.277822 102.176155 29.012094 0.000000 0.000000 0.000000 8.091916 -35.127017 6.296191 10.027732 9.220840 -12.825549 27.500430 -6.906368 4.414474 -31.635483 -7.084098 10.437670 -7.068798 -2.044329 -10.144031 0.000000 0.000000 0.000000 5.340995 -35.505311 6.152605 -61.143505 14.286288 4.973368 17.523859 -13.610409 -2.765868 13.842366 11.770033 16.947081 6.963248 0.391459 -14.229575 0.000000 0.000000 0.000000 7.525062 -31.566614 7.894078 4.565587 -10.136650 5.392954 7.105029 -6.726732 1.517078 0.070023 -0.687271 0.211693 0.000000 0.000000 0.000000 1.881137 -5.532602 1.728361 -5.355372 40.434191 -1.740594 9.932075 50.957173 -20.227588 0.000000 0.000000 0.000000 1.314255 -6.844253 0.299822 6.465641 1.302003 2.354124 -2.134843 -5.507711 -1.103956 -17.899612 19.271430 -32.588878 25.944229 -28.384058 14.923665 0.000000 0.000000 0.000000 2.609539 -6.396456 1.366404 4.434413 -15.182162 0.047929 10.670554 7.632524 -0.140562 -7.935759 -13.576560 77.339625 -7.828951 9.862122 1.840262 0.000000 0.000000 0.000000 
2.323470 102.746635 26.184639 0.000000 0.000000 0.000000 8.231847 -39.436874 7.682304 10.905651 8.243797 -13.308094 26.186015 -5.730610 4.427873 -34.040959 -8.114722 10.817057 -1.916503 -1.370005 -10.436357 0.000000 0.000000 0.000000 5.633697 -40.608347 7.350352 -62.472749 15.694661 4.393177 20.859613 -11.996328 -2.002763 15.402514 12.075307 18.415073 8.808150 -0.168419 -12.873570 0.000000 0.000000 0.000000 8.637939 -34.919714 8.807026 4.018934 -10.192013 4.519652 6.796728 -6.449623 0.851612 0.279172 -0.693932 0.142734 0.000000 0.000000 0.000000 1.339582 -5.051810 1.291763 -3.840921 41.047398 -1.470948 4.329344 49.643987 -14.418558 0.000000 0.000000 0.000000 0.566798 -6.215753 -0.287472 6.521680 3.288570 4.177586 -2.590245 -4.321795 -2.731691 -22.717805 15.644883 -31.834112 27.653068 -33.014655 17.813912 0.000000 0.000000 0.000000 2.301114 -5.921085 0.759990 4.399305 -15.477844 -0.061330 8.558195 7.803522 0.730560 -7.834838 -5.773368 75.737167 -5.798983 12.110789 2.200048 0.000000 0.000000 0.000000 
4.234494 102.932297 23.346767 0.000000 0.000000 0.000000 7.489033 -41.344877 7.789592 10.121189 7.401762 -12.804848 27.080662 -5.097042 4.883203 -35.421112 -8.783834 9.170635 0.418544 -0.815271 -9.749920 0.000000 0.000000 0.000000 5.480463 -44.070973 7.480496 -64.361357 17.771169 3.921518 25.543535 -10.069162 -0.884696 18.077159 12.577313 20.007052 11.751303 -0.891029 -11.155001 0.000000 0.000000 0.000000 9.453648 -37.333257 9.071109 4.358082 -10.413045 3.828440 6.352422 -5.981993 0.304058 0.428238 -0.609205 0.169840 0.000000 0.000000 0.000000 1.090779 -4.432857 0.997572 -3.200125 41.493218 -0.593202 -2.548788 47.437037 -7.376978 0.000000 0.000000 0.000000 0.129745 -5.481759 -0.677465 6.500274 5.074849 6.059104 -2.635202 -2.656768 -3.844886 -25.571808 12.394225 -32.275495 29.776053 -38.071437 21.008670 0.000000 0.000000 0.000000 2.258084 -5.312743 0.321257 4.671569 -15.695628 0.580529 5.920866 7.522185 1.003998 -7.372760 2.175866 73.088195 -3.440634 14.856274 2.648931 0.000000 0.000000 0.000000 
5.779404 103.275139 20.439285 0.000000 0.000000 0.000000 6.320044 -41.948795 7.071921 8.176588 7.377471 -11.861378 28.847789 -4.806127 5.439818 -35.566509 -9.392304 6.611471 0.574915 -0.464711 -8.102482 0.000000 0.000000 0.000000 5.567236 -45.690428 7.233264 -64.912643 19.574134 2.992314 29.720322 -8.218297 0.302046 19.375259 12.780188 20.934861 13.613603 -1.421420 -9.884269 0.000000 0.000000 0.000000 9.748465 -38.753223 8.987772 5.056067 -10.672057 3.177122 5.728790 -5.257558 -0.138749 0.374345 -0.609720 0.084820 0.000000 0.000000 0.000000 1.075466 -3.675327 0.867018 -3.066685 41.725564 0.565288 -8.583988 44.204271 -0.499616 0.000000 0.000000 0.000000 -0.003176 -4.633528 -0.888774 6.368862 6.599806 7.632961 -2.396228 -1.221747 -4.330797 -26.665801 9.998292 -33.689116 32.127338 -43.488026 24.407179 0.000000 0.000000 0.000000 2.420857 -4.571895 -0.012858 5.110967 -15.967381 1.439126 3.283266 7.170111 0.272924 -6.863275 9.057160 69.559828 -1.139689 17.906019 3.250721 0.000000 0.000000 0.000000 
7.124522 103.921936 17.624458 0.000000 0.000000 0.000000 5.151032 -41.812178 6.218234 5.868575 8.213865 -10.967145 30.434421 -4.799579 6.027822 -34.573994 -9.993071 4.262998 0.364917 -0.443992 -6.165160 0.000000 0.000000 0.000000 5.544403 -46.719170 6.912541 -64.195876 20.314060 1.056684 33.264387 -6.789364 1.457545 19.732191 12.577543 21.352148 14.556339 -1.669082 -9.381788 0.000000 0.000000 0.000000 9.442208 -39.366721 8.725871 5.713425 -10.804857 2.372428 4.994311 -4.334704 -0.497745 0.250115 -0.742431 0.072946 0.000000 0.000000 0.000000 1.336241 -2.793960 0.858475 -3.184412 41.730332 1.608414 -12.562904 40.284555 5.245718 0.000000 0.000000 0.000000 0.108475 -3.729946 -0.987571 6.135188 7.843344 8.703028 -2.252169 -0.531092 -4.244917 -26.330401 9.037895 -35.739207 34.623984 -49.296778 28.012412 0.000000 0.000000 0.000000 2.708567 -3.735253 -0.238915 5.627190 -16.327062 2.085160 1.284438 6.561265 -0.707685 -6.682809 13.996448 65.871082 0.774028 21.184977 4.050801 0.000000 0.000000 0.000000 
8.089762 104.906883 14.780949 0.000000 0.000000 0.000000 4.414112 -41.336995 5.729919 3.983730 9.506050 -10.399532 30.711256 -4.706134 6.444223 -33.173563 -10.479167 3.043149 1.108961 -0.692617 -4.543503 0.000000 0.000000 0.000000 4.874352 -47.738439 6.515197 -63.023788 19.948457 -1.849378 36.549654 -5.779394 2.480932 20.186308 11.866938 22.050485 15.036737 -1.623373 -9.482912 0.000000 0.000000 0.000000 8.810978 -39.249057 8.407375 6.035661 -10.704171 1.396433 4.340661 -3.300652 -0.776030 0.114633 -0.978347 0.096333 0.000000 0.000000 0.000000 1.790345 -1.842952 0.923566 -3.453810 41.526273 2.440986 -14.352123 36.411564 9.581429 0.000000 0.000000 0.000000 0.418698 -2.832576 -1.060192 5.813188 8.883598 9.310374 -2.061999 -0.609440 -3.961053 -25.322320 9.400330 -38.173377 37.216656 -55.108893 31.740494 0.000000 0.000000 0.000000 3.056048 -2.856305 -0.404041 6.083360 -16.745600 2.210888 0.052709 5.896723 -1.099257 -6.975018 16.617145 62.615479 2.097465 24.592946 5.081268 0.000000 0.000000 0.000000 
8.452949 106.232750 11.769608 0.000000 0.000000 0.000000 4.312417 -41.033755 5.772822 2.928019 10.618840 -10.007965 29.189537 -4.147646 6.475255 -31.600891 -10.723645 3.023038 2.313837 -0.991331 -3.672372 0.000000 0.000000 0.000000 4.528456 -47.559208 6.501569 -60.976377 19.188196 -5.100442 38.658365 -4.515188 2.989092 19.954982 10.994434 23.797492 14.168232 -1.306829 -10.130551 0.000000 0.000000 0.000000 8.143272 -38.754541 8.050739 5.967550 -10.223536 0.386427 4.027970 -2.304676 -1.006464 -0.012976 -1.254019 0.087006 0.000000 0.000000 0.000000 2.346117 -0.933610 0.951001 -3.860675 41.134534 3.112156 -14.697281 33.254610 12.716907 0.000000 0.000000 0.000000 0.899267 -1.990984 -1.169848 5.402631 9.749867 9.708002 -1.996819 -1.267386 -3.605831 -23.951006 10.710388 -40.804394 39.971701 -60.414027 35.581331 0.000000 0.000000 0.000000 3.390235 -2.021237 -0.541340 6.387818 -17.101928 1.848513 -0.552401 5.430600 -0.883151 -7.665741 17.247583 60.128874 2.751730 27.773626 6.257501 0.000000 0.000000 0.000000 
8.506197 107.366058 8.888046 0.000000 0.000000 0.000000 4.387288 -40.529103 5.869561 2.251083 10.984781 -9.428898 27.039725 -3.375649 6.265247 -29.556896 -10.526694 3.468036 2.508168 -1.246658 -3.462890 0.000000 0.000000 0.000000 4.693464 -46.154279 6.640998 -57.517836 18.540253 -7.968259 39.006579 -3.034477 2.812149 18.100310 9.699008 25.744260 11.827146 -0.690349 -11.100713 0.000000 0.000000 0.000000 7.342736 -38.169167 7.440446 5.789627 -9.359401 -0.355009 4.134751 -1.425664 -1.238194 -0.041441 -1.480144 0.169400 0.000000 0.000000 0.000000 3.017335 -0.113538 0.865102 -4.553214 40.498664 3.767454 -14.429412 30.926236 14.762650 0.000000 0.000000 0.000000 1.516954 -1.253769 -1.347298 4.938323 10.471882 10.029078 -1.815997 -2.328383 -2.933103 -22.432670 12.475987 -43.551728 42.628816 -64.726137 39.191940 0.000000 0.000000 0.000000 3.741476 -1.279163 -0.660813 6.539784 -17.277985 1.140812 -0.686446 5.124545 -0.434347 -8.564391 16.431603 58.467280 2.914519 30.551532 7.375298 0.000000 0.000000 0.000000 
8.314460 108.230782 6.303871 0.000000 0.000000 0.000000 3.939155 -39.734977 5.521203 1.492947 10.424055 -8.455089 25.656217 -2.192924 5.803885 -27.220983 -9.880488 4.267934 1.675002 -1.469467 -3.861551 0.000000 0.000000 0.000000 4.668267 -43.938675 6.290776 -52.467584 17.736784 -10.196344 37.643143 -2.117608 2.165609 14.912142 7.292820 26.609049 9.499888 0.121462 -11.992777 0.000000 0.000000 0.000000 6.350311 -37.529700 6.443706 5.753623 -8.160009 -0.536461 4.641940 -0.682508 -1.511482 -0.052041 -1.619689 0.220706 0.000000 0.000000 0.000000 3.721741 0.553103 0.624221 -5.514078 39.568362 4.542264 -13.993546 29.275564 15.856195 0.000000 0.000000 0.000000 2.235839 -0.633691 -1.611562 4.424671 11.036997 10.424078 -1.504513 -3.247536 -2.054408 -20.902216 13.980368 -46.421353 44.667856 -67.711039 41.962374 0.000000 0.000000 0.000000 4.163843 -0.662266 -0.827292 6.544216 -17.269151 0.253327 -0.690654 5.248306 -0.157783 -9.179201 15.014346 57.189860 2.849498 32.971072 8.167360 0.000000 0.000000 0.000000 
